<svg width="671" height="97" viewBox="0 0 671 97" fill="none" xmlns="http://www.w3.org/2000/svg">
<path d="M47.439 96.29C40.731 96.29 34.539 95.129 28.863 92.807C23.187 90.399 18.242 87.045 14.028 82.745C9.9 78.445 6.675 73.371 4.353 67.523C2.031 61.589 0.87 55.139 0.87 48.173C0.87 41.207 1.988 34.843 4.224 29.081C6.546 23.319 9.771 18.331 13.899 14.117C18.113 9.81699 23.058 6.549 28.734 4.313C34.41 1.991 40.645 0.829998 47.439 0.829998C55.093 0.829998 61.973 2.335 68.079 5.34499C74.271 8.269 79.302 12.44 83.172 17.858C87.128 23.19 89.536 29.468 90.396 36.692H71.046C69.928 30.07 67.219 25.082 62.919 21.728C58.619 18.288 53.502 16.568 47.568 16.568C42.322 16.568 37.678 17.815 33.636 20.309C29.68 22.803 26.584 26.415 24.348 31.145C22.112 35.789 20.994 41.422 20.994 48.044C20.994 54.752 22.112 60.557 24.348 65.459C26.67 70.275 29.852 74.016 33.894 76.682C37.936 79.262 42.58 80.552 47.826 80.552C53.416 80.552 58.361 78.875 62.661 75.521C66.961 72.167 69.756 67.179 71.046 60.557H90.654C89.536 67.781 86.999 74.102 83.043 79.52C79.087 84.852 74.056 88.98 67.95 91.904C61.844 94.828 55.007 96.29 47.439 96.29ZM140.253 95C139.737 93.108 139.35 91.087 139.092 88.937C138.92 86.787 138.834 84.293 138.834 81.455H138.318V50.366C138.318 47.7 137.415 45.636 135.609 44.174C133.889 42.626 131.309 41.852 127.869 41.852C124.601 41.852 121.978 42.411 120 43.529C118.108 44.647 116.861 46.281 116.259 48.431H97.8125C98.6725 42.497 101.725 37.595 106.971 33.725C112.217 29.855 119.398 27.92 128.514 27.92C137.974 27.92 145.198 30.027 150.186 34.241C155.174 38.455 157.668 44.518 157.668 52.43V81.455C157.668 83.605 157.797 85.798 158.055 88.034C158.399 90.184 158.915 92.506 159.603 95H140.253ZM117.291 96.29C110.755 96.29 105.552 94.656 101.682 91.388C97.8125 88.034 95.8775 83.605 95.8775 78.101C95.8775 71.995 98.1565 67.093 102.714 63.395C107.358 59.611 113.808 57.16 122.064 56.042L141.285 53.333V64.556L125.289 67.007C121.849 67.523 119.312 68.469 117.678 69.845C116.044 71.221 115.227 73.113 115.227 75.521C115.227 77.671 116.001 79.305 117.549 80.423C119.097 81.541 121.161 82.1 123.741 82.1C127.783 82.1 131.223 81.025 134.061 78.875C136.899 76.639 138.318 74.059 138.318 71.135L140.124 81.455C138.232 86.357 135.351 90.055 131.481 92.549C127.611 95.043 122.881 96.29 117.291 96.29ZM172.541 95V29.21H191.504V44.69H191.891V95H172.541ZM191.891 60.686L190.214 45.077C191.762 39.487 194.299 35.23 197.825 32.306C201.351 29.382 205.737 27.92 210.983 27.92C212.617 27.92 213.821 28.092 214.595 28.436V46.496C214.165 46.324 213.563 46.238 212.789 46.238C212.015 46.152 211.069 46.109 209.951 46.109C203.759 46.109 199.201 47.227 196.277 49.463C193.353 51.613 191.891 55.354 191.891 60.686ZM253.891 96.29C246.581 96.29 240.217 94.871 234.799 92.033C229.381 89.109 225.167 85.067 222.157 79.907C219.233 74.747 217.771 68.813 217.771 62.105C217.771 55.311 219.233 49.377 222.157 44.303C225.167 39.143 229.338 35.144 234.67 32.306C240.002 29.382 246.194 27.92 253.246 27.92C260.04 27.92 265.931 29.296 270.919 32.048C275.907 34.8 279.777 38.627 282.529 43.529C285.281 48.431 286.657 54.193 286.657 60.815C286.657 62.191 286.614 63.481 286.528 64.685C286.442 65.803 286.313 66.878 286.141 67.91H229.123V55.139H270.532L267.178 57.461C267.178 52.129 265.888 48.216 263.308 45.722C260.814 43.142 257.374 41.852 252.988 41.852C247.914 41.852 243.958 43.572 241.12 47.012C238.368 50.452 236.992 55.612 236.992 62.492C236.992 69.2 238.368 74.188 241.12 77.456C243.958 80.724 248.172 82.358 253.762 82.358C256.858 82.358 259.524 81.842 261.76 80.81C263.996 79.778 265.673 78.101 266.791 75.779H284.98C282.83 82.143 279.132 87.174 273.886 90.872C268.726 94.484 262.061 96.29 253.891 96.29ZM369.412 95V2.12H400.372L426.172 91.646H414.949L440.749 2.12H471.838V95H452.23V7.66699H455.584L430.429 95H409.918L385.021 8.441H388.246V95H369.412ZM527.379 95C526.863 93.108 526.476 91.087 526.218 88.937C526.046 86.787 525.96 84.293 525.96 81.455H525.444V50.366C525.444 47.7 524.541 45.636 522.735 44.174C521.015 42.626 518.435 41.852 514.995 41.852C511.727 41.852 509.104 42.411 507.126 43.529C505.234 44.647 503.987 46.281 503.385 48.431H484.938C485.798 42.497 488.851 37.595 494.097 33.725C499.343 29.855 506.524 27.92 515.64 27.92C525.1 27.92 532.324 30.027 537.312 34.241C542.3 38.455 544.794 44.518 544.794 52.43V81.455C544.794 83.605 544.923 85.798 545.181 88.034C545.525 90.184 546.041 92.506 546.729 95H527.379ZM504.417 96.29C497.881 96.29 492.678 94.656 488.808 91.388C484.938 88.034 483.003 83.605 483.003 78.101C483.003 71.995 485.282 67.093 489.84 63.395C494.484 59.611 500.934 57.16 509.19 56.042L528.411 53.333V64.556L512.415 67.007C508.975 67.523 506.438 68.469 504.804 69.845C503.17 71.221 502.353 73.113 502.353 75.521C502.353 77.671 503.127 79.305 504.675 80.423C506.223 81.541 508.287 82.1 510.867 82.1C514.909 82.1 518.349 81.025 521.187 78.875C524.025 76.639 525.444 74.059 525.444 71.135L527.25 81.455C525.358 86.357 522.477 90.055 518.607 92.549C514.737 95.043 510.007 96.29 504.417 96.29ZM586.35 96.419C577.922 96.419 571.644 94.398 567.516 90.356C563.474 86.228 561.453 79.993 561.453 71.651V14.504L580.803 7.28V72.296C580.803 75.22 581.62 77.413 583.254 78.875C584.888 80.337 587.425 81.068 590.865 81.068C592.155 81.068 593.359 80.939 594.477 80.681C595.595 80.423 596.713 80.122 597.831 79.778V94.484C596.713 95.086 595.122 95.559 593.058 95.903C591.08 96.247 588.844 96.419 586.35 96.419ZM549.198 43.916V29.21H597.831V43.916H549.198ZM638.12 96.29C630.81 96.29 624.446 94.871 619.028 92.033C613.61 89.109 609.396 85.067 606.386 79.907C603.462 74.747 602 68.813 602 62.105C602 55.311 603.462 49.377 606.386 44.303C609.396 39.143 613.567 35.144 618.899 32.306C624.231 29.382 630.423 27.92 637.475 27.92C644.269 27.92 650.16 29.296 655.148 32.048C660.136 34.8 664.006 38.627 666.758 43.529C669.51 48.431 670.886 54.193 670.886 60.815C670.886 62.191 670.843 63.481 670.757 64.685C670.671 65.803 670.542 66.878 670.37 67.91H613.352V55.139H654.761L651.407 57.461C651.407 52.129 650.117 48.216 647.537 45.722C645.043 43.142 641.603 41.852 637.217 41.852C632.143 41.852 628.187 43.572 625.349 47.012C622.597 50.452 621.221 55.612 621.221 62.492C621.221 69.2 622.597 74.188 625.349 77.456C628.187 80.724 632.401 82.358 637.991 82.358C641.087 82.358 643.753 81.842 645.989 80.81C648.225 79.778 649.902 78.101 651.02 75.779H669.209C667.059 82.143 663.361 87.174 658.115 90.872C652.955 94.484 646.29 96.29 638.12 96.29Z" fill="white"/>
</svg>
