<svg width="677" height="102" viewBox="0 0 677 102" fill="none" xmlns="http://www.w3.org/2000/svg">
<path d="M50.439 96.29C43.731 96.29 37.539 95.129 31.863 92.807C26.187 90.399 21.242 87.045 17.028 82.745C12.9 78.445 9.675 73.371 7.353 67.523C5.031 61.589 3.87 55.139 3.87 48.173C3.87 41.207 4.988 34.843 7.224 29.081C9.546 23.319 12.771 18.331 16.899 14.117C21.113 9.81699 26.058 6.549 31.734 4.313C37.41 1.991 43.645 0.829998 50.439 0.829998C58.093 0.829998 64.973 2.335 71.079 5.34499C77.271 8.269 82.302 12.44 86.172 17.858C90.128 23.19 92.536 29.468 93.396 36.692H74.046C72.928 30.07 70.219 25.082 65.919 21.728C61.619 18.288 56.502 16.568 50.568 16.568C45.322 16.568 40.678 17.815 36.636 20.309C32.68 22.803 29.584 26.415 27.348 31.145C25.112 35.789 23.994 41.422 23.994 48.044C23.994 54.752 25.112 60.557 27.348 65.459C29.67 70.275 32.852 74.016 36.894 76.682C40.936 79.262 45.58 80.552 50.826 80.552C56.416 80.552 61.361 78.875 65.661 75.521C69.961 72.167 72.756 67.179 74.046 60.557H93.654C92.536 67.781 89.999 74.102 86.043 79.52C82.087 84.852 77.056 88.98 70.95 91.904C64.844 94.828 58.007 96.29 50.439 96.29ZM143.253 95C142.737 93.108 142.35 91.087 142.092 88.937C141.92 86.787 141.834 84.293 141.834 81.455H141.318V50.366C141.318 47.7 140.415 45.636 138.609 44.174C136.889 42.626 134.309 41.852 130.869 41.852C127.601 41.852 124.978 42.411 123 43.529C121.108 44.647 119.861 46.281 119.259 48.431H100.812C101.672 42.497 104.725 37.595 109.971 33.725C115.217 29.855 122.398 27.92 131.514 27.92C140.974 27.92 148.198 30.027 153.186 34.241C158.174 38.455 160.668 44.518 160.668 52.43V81.455C160.668 83.605 160.797 85.798 161.055 88.034C161.399 90.184 161.915 92.506 162.603 95H143.253ZM120.291 96.29C113.755 96.29 108.552 94.656 104.682 91.388C100.812 88.034 98.8775 83.605 98.8775 78.101C98.8775 71.995 101.156 67.093 105.714 63.395C110.358 59.611 116.808 57.16 125.064 56.042L144.285 53.333V64.556L128.289 67.007C124.849 67.523 122.312 68.469 120.678 69.845C119.044 71.221 118.227 73.113 118.227 75.521C118.227 77.671 119.001 79.305 120.549 80.423C122.097 81.541 124.161 82.1 126.741 82.1C130.783 82.1 134.223 81.025 137.061 78.875C139.899 76.639 141.318 74.059 141.318 71.135L143.124 81.455C141.232 86.357 138.351 90.055 134.481 92.549C130.611 95.043 125.881 96.29 120.291 96.29ZM175.541 95V29.21H194.504V44.69H194.891V95H175.541ZM194.891 60.686L193.214 45.077C194.762 39.487 197.299 35.23 200.825 32.306C204.351 29.382 208.737 27.92 213.983 27.92C215.617 27.92 216.821 28.092 217.595 28.436V46.496C217.165 46.324 216.563 46.238 215.789 46.238C215.015 46.152 214.069 46.109 212.951 46.109C206.759 46.109 202.201 47.227 199.277 49.463C196.353 51.613 194.891 55.354 194.891 60.686ZM256.891 96.29C249.581 96.29 243.217 94.871 237.799 92.033C232.381 89.109 228.167 85.067 225.157 79.907C222.233 74.747 220.771 68.813 220.771 62.105C220.771 55.311 222.233 49.377 225.157 44.303C228.167 39.143 232.338 35.144 237.67 32.306C243.002 29.382 249.194 27.92 256.246 27.92C263.04 27.92 268.931 29.296 273.919 32.048C278.907 34.8 282.777 38.627 285.529 43.529C288.281 48.431 289.657 54.193 289.657 60.815C289.657 62.191 289.614 63.481 289.528 64.685C289.442 65.803 289.313 66.878 289.141 67.91H232.123V55.139H273.532L270.178 57.461C270.178 52.129 268.888 48.216 266.308 45.722C263.814 43.142 260.374 41.852 255.988 41.852C250.914 41.852 246.958 43.572 244.12 47.012C241.368 50.452 239.992 55.612 239.992 62.492C239.992 69.2 241.368 74.188 244.12 77.456C246.958 80.724 251.172 82.358 256.762 82.358C259.858 82.358 262.524 81.842 264.76 80.81C266.996 79.778 268.673 78.101 269.791 75.779H287.98C285.83 82.143 282.132 87.174 276.886 90.872C271.726 94.484 265.061 96.29 256.891 96.29ZM372.412 95V2.12H403.372L429.172 91.646H417.949L443.749 2.12H474.838V95H455.23V7.66699H458.584L433.429 95H412.918L388.021 8.441H391.246V95H372.412ZM530.379 95C529.863 93.108 529.476 91.087 529.218 88.937C529.046 86.787 528.96 84.293 528.96 81.455H528.444V50.366C528.444 47.7 527.541 45.636 525.735 44.174C524.015 42.626 521.435 41.852 517.995 41.852C514.727 41.852 512.104 42.411 510.126 43.529C508.234 44.647 506.987 46.281 506.385 48.431H487.938C488.798 42.497 491.851 37.595 497.097 33.725C502.343 29.855 509.524 27.92 518.64 27.92C528.1 27.92 535.324 30.027 540.312 34.241C545.3 38.455 547.794 44.518 547.794 52.43V81.455C547.794 83.605 547.923 85.798 548.181 88.034C548.525 90.184 549.041 92.506 549.729 95H530.379ZM507.417 96.29C500.881 96.29 495.678 94.656 491.808 91.388C487.938 88.034 486.003 83.605 486.003 78.101C486.003 71.995 488.282 67.093 492.84 63.395C497.484 59.611 503.934 57.16 512.19 56.042L531.411 53.333V64.556L515.415 67.007C511.975 67.523 509.438 68.469 507.804 69.845C506.17 71.221 505.353 73.113 505.353 75.521C505.353 77.671 506.127 79.305 507.675 80.423C509.223 81.541 511.287 82.1 513.867 82.1C517.909 82.1 521.349 81.025 524.187 78.875C527.025 76.639 528.444 74.059 528.444 71.135L530.25 81.455C528.358 86.357 525.477 90.055 521.607 92.549C517.737 95.043 513.007 96.29 507.417 96.29ZM589.35 96.419C580.922 96.419 574.644 94.398 570.516 90.356C566.474 86.228 564.453 79.993 564.453 71.651V14.504L583.803 7.28V72.296C583.803 75.22 584.62 77.413 586.254 78.875C587.888 80.337 590.425 81.068 593.865 81.068C595.155 81.068 596.359 80.939 597.477 80.681C598.595 80.423 599.713 80.122 600.831 79.778V94.484C599.713 95.086 598.122 95.559 596.058 95.903C594.08 96.247 591.844 96.419 589.35 96.419ZM552.198 43.916V29.21H600.831V43.916H552.198ZM641.12 96.29C633.81 96.29 627.446 94.871 622.028 92.033C616.61 89.109 612.396 85.067 609.386 79.907C606.462 74.747 605 68.813 605 62.105C605 55.311 606.462 49.377 609.386 44.303C612.396 39.143 616.567 35.144 621.899 32.306C627.231 29.382 633.423 27.92 640.475 27.92C647.269 27.92 653.16 29.296 658.148 32.048C663.136 34.8 667.006 38.627 669.758 43.529C672.51 48.431 673.886 54.193 673.886 60.815C673.886 62.191 673.843 63.481 673.757 64.685C673.671 65.803 673.542 66.878 673.37 67.91H616.352V55.139H657.761L654.407 57.461C654.407 52.129 653.117 48.216 650.537 45.722C648.043 43.142 644.603 41.852 640.217 41.852C635.143 41.852 631.187 43.572 628.349 47.012C625.597 50.452 624.221 55.612 624.221 62.492C624.221 69.2 625.597 74.188 628.349 77.456C631.187 80.724 635.401 82.358 640.991 82.358C644.087 82.358 646.753 81.842 648.989 80.81C651.225 79.778 652.902 78.101 654.02 75.779H672.209C670.059 82.143 666.361 87.174 661.115 90.872C655.955 94.484 649.29 96.29 641.12 96.29Z" fill="white"/>
<rect x="286.5" y="6.5" width="88" height="88" rx="44" fill="#3F51B5"/>
<rect x="286.5" y="6.5" width="88" height="88" rx="44" stroke="white" stroke-width="7"/>
<line x1="306" y1="50" x2="354" y2="50" stroke="white" stroke-width="8" stroke-linecap="round"/>
<line x1="330" y1="26" x2="330" y2="74" stroke="white" stroke-width="8" stroke-linecap="round"/>
</svg>
